<?xml version="1.0" encoding="UTF-8"?>
<svg width="134px" height="775px" viewBox="0 0 134 775" version="1.1" xmlns="http://www.w3.org/2000/svg" xmlns:xlink="http://www.w3.org/1999/xlink">
    <!-- Generator: Sketch 52.6 (67491) - http://www.bohemiancoding.com/sketch -->
    <title>DEACON_logo_1</title>
    <desc>Created with Sketch.</desc>
    <defs>
        <polygon id="path-1" points="0.0647542779 0.124308649 314.977758 0.124308649 314.977758 133.876927 0.0647542779 133.876927"></polygon>
    </defs>
    <g id="Design" stroke="none" stroke-width="1" fill="none" fill-rule="evenodd" opacity="0.095261">
        <g id="Deacon_Web-XS-V2" transform="translate(0.000000, -2800.000000)">
            <g id="Group-5" transform="translate(-6.000000, 2550.000000)">
                <g id="DEACON_logo_1" transform="translate(70.000000, 637.500000) rotate(-270.000000) translate(-70.000000, -637.500000) translate(-317.500000, 567.500000)">
                    <g id="Group-6" transform="translate(0.500000, 3.000000)">
                        <mask id="mask-2" fill="white">
                            <use xlink:href="#path-1"></use>
                        </mask>
                        <g id="Clip-2"></g>
                        <path d="M249.364407,82.4811704 C246.290737,82.4811704 245.141349,83.8185785 245.141349,86.8765847 L245.141349,93.7525368 C245.141349,96.810543 246.290737,98.1479511 249.364407,98.1479511 L310.746066,98.1479511 C313.820815,98.1479511 314.977758,99.4864326 314.977758,102.543365 L314.977758,129.481513 C314.977758,132.539519 313.820815,133.876927 310.746066,133.876927 L216.318141,133.876927 C213.252026,133.876927 212.095083,132.539519 212.095083,129.481513 L212.095083,4.51864959 C212.095083,1.46171676 213.252026,0.124308649 216.318141,0.124308649 L310.746066,0.124308649 C313.820815,0.124308649 314.977758,1.46171676 314.977758,4.51864959 L314.977758,31.4578702 C314.977758,34.5223165 313.820815,35.8532845 310.746066,35.8532845 L249.364407,35.8532845 C246.290737,35.8532845 245.141349,37.1906926 245.141349,40.2476254 L245.141349,47.3189293 C245.141349,50.3758621 246.290737,51.7143436 249.364407,51.7143436 L301.140848,51.7143436 C304.215597,51.7143436 305.372541,53.0528251 305.372541,56.1097579 L305.372541,78.0846827 C305.372541,81.1426889 304.215597,82.4811704 301.140848,82.4811704 L249.364407,82.4811704" id="Fill-1" fill="#877011" mask="url(#mask-2)"></path>
                        <path d="M19.4295211,122.234177 C17.9973723,122.234177 17.460991,122.767638 17.460991,124.196282 L17.460991,129.714432 C17.460991,131.138782 16.925689,131.675463 15.492461,131.675463 L1.97176776,131.675463 C0.539618982,131.675463 0,131.138782 0,129.714432 L0,99.4381313 C0,98.0127076 0.539618982,97.4803204 1.97176776,97.4803204 L15.492461,97.4803204 C16.925689,97.4803204 17.460991,98.0127076 17.460991,99.4381313 L17.460991,104.959502 C17.460991,106.384925 17.9973723,106.917312 19.4295211,106.917312 L60.7103732,106.917312 C62.142522,106.917312 62.677824,107.453993 62.677824,108.878343 L62.677824,120.27744 C62.677824,121.70179 62.142522,122.234177 60.7103732,122.234177 L19.4295211,122.234177" id="Fill-3" fill="#877011" mask="url(#mask-2)"></path>
                        <path d="M20.5055213,75.5526235 C21.9376701,75.5526235 22.5647074,75.0202363 22.5647074,73.5915925 L22.5647074,55.4281735 C22.5647074,54.0027498 21.9376701,53.4660691 20.5055213,53.4660691 L2.05918604,53.4660691 C0.627037257,53.4660691 0,52.933682 0,51.5082582 L0,39.7538792 C0,38.3295289 0.627037257,37.7928482 2.05918604,37.7928482 L60.618638,37.7928482 C62.0507868,37.7928482 62.677824,38.3295289 62.677824,39.7538792 L62.677824,51.5082582 C62.677824,52.933682 62.0507868,53.4660691 60.618638,53.4660691 L41.7244189,53.4660691 C40.2922702,53.4660691 39.6652329,54.0027498 39.6652329,55.4281735 L39.6652329,73.5915925 C39.6652329,75.0202363 40.2922702,75.5526235 41.7244189,75.5526235 L60.618638,75.5526235 C62.0507868,75.5526235 62.677824,76.0860841 62.677824,77.5104344 L62.677824,89.2680335 C62.677824,90.6902372 62.0507868,91.2247711 60.618638,91.2247711 L2.05918604,91.2247711 C0.627037257,91.2247711 0,90.6902372 0,89.2680335 L0,77.5104344 C0,76.0860841 0.627037257,75.5526235 2.05918604,75.5526235 L20.5055213,75.5526235" id="Fill-4" fill="#877011" mask="url(#mask-2)"></path>
                        <path d="M44.772187,4.27929003 C44.772187,2.8538663 45.3959865,2.31718568 46.8281353,2.31718568 L60.618638,2.31718568 C62.0507868,2.31718568 62.677824,2.8538663 62.677824,4.27929003 L62.677824,26.8950115 C62.677824,28.3236553 62.0507868,28.8560425 60.618638,28.8560425 L2.05918604,28.8560425 C0.627037257,28.8560425 0,28.3236553 0,26.8950115 L0,4.27929003 C0,2.8538663 0.627037257,2.31718568 2.05918604,2.31718568 L15.8496887,2.31718568 C17.2829168,2.31718568 17.909954,2.8538663 17.909954,4.27929003 L17.909954,11.5802932 C17.909954,13.005717 18.4452561,13.5381041 19.8784841,13.5381041 L21.4023681,13.5381041 C22.8345169,13.5381041 23.3698189,13.005717 23.3698189,11.5802932 L23.3698189,6.05892298 C23.3698189,4.63457261 23.9979354,4.09789198 25.4300842,4.09789198 L37.2477399,4.09789198 C38.6809679,4.09789198 39.3080051,4.63457261 39.3080051,6.05892298 L39.3080051,11.5802932 C39.3080051,13.005717 39.8476241,13.5381041 41.2797729,13.5381041 L42.8004192,13.5381041 C44.232568,13.5381041 44.772187,13.005717 44.772187,11.5802932 L44.772187,4.27929003" id="Fill-5" fill="#877011" mask="url(#mask-2)"></path>
                    </g>
                    <path d="M120.943854,97.00065 C120.943854,100.087151 122.090756,101.437021 125.1549,101.437021 L133.388712,101.437021 C153.692971,101.437021 165.950623,89.2827737 165.950623,70 C165.950623,50.7161429 153.692971,38.5618961 133.388712,38.5618961 L125.1549,38.5618961 C122.090756,38.5618961 120.943854,39.9128495 120.943854,42.9982666 L120.943854,97.00065 Z M136.843405,2.5 C174.956926,2.5 201,30.6555147 201,69.8114949 C201,108.958808 174.956926,137.5 136.843405,137.5 L92.2110465,137.5 C89.1533576,137.5 88,136.149047 88,133.06363 L88,6.93528713 C88,3.84987 89.1533576,2.5 92.2110465,2.5 L136.843405,2.5 Z" id="Fill-7" fill="#877011"></path>
                    <path d="M370.070238,80.4924284 C369.687771,82.0394829 369.500308,83.3893637 369.500308,84.1596408 C369.500308,85.6969449 370.842715,86.2797987 372.951133,86.2797987 L380.048867,86.2797987 C382.157285,86.2797987 383.304688,85.5095216 383.304688,84.1596408 C383.304688,83.3893637 383.117225,82.0394829 382.734757,80.4924284 L379.283932,65.2602258 C378.705382,62.7478874 377.940448,61.2084166 376.401959,61.2084166 C374.872089,61.2084166 374.29354,62.7478874 373.716068,65.2602258 L370.070238,80.4924284 Z M362.402575,131.7944 C361.254095,136.419313 359.716684,137 354.539907,137 L330.950826,137 C328.452398,137 327.5,135.846209 327.5,133.914558 C327.5,133.145364 327.687463,132.563594 327.882467,131.599393 L359.529221,6.43532272 C360.481619,2.96528396 362.01903,2 365.088466,2 L387.911534,2 C390.979893,2 392.51084,2.96528396 393.470779,6.43532272 L425.117533,131.599393 C425.304995,132.563594 425.5,133.145364 425.5,133.914558 C425.5,135.846209 424.540061,137 422.048097,137 L398.265089,137 C393.088312,137 391.557365,136.419313 390.402421,131.7944 L387.529067,120.025736 C386.569128,116.554614 385.225644,115.78542 382.157285,115.78542 L370.64771,115.78542 C367.579352,115.78542 366.048405,116.554614 365.275928,120.025736 L362.402575,131.7944 Z" id="Fill-8" fill="#877011"></path>
                    <path d="M492.10554,102.319053 C504.470742,102.319053 513.225908,97.1069595 520.073966,87.4484279 C522.166012,84.556074 523.692554,84.1710775 526.930576,85.7099789 L548.623932,96.141757 C552.428527,98.0667395 551.855539,100.966685 550.336481,104.244035 C539.869835,126.44803 517.222925,139 491.91205,139 C453.468426,139 425.5,109.847632 425.5,69.495662 C425.5,29.1523679 453.468426,-1.8189894e-12 491.91205,-1.8189894e-12 C517.222925,-1.8189894e-12 539.869835,12.5443786 550.336481,34.7483733 C551.855539,38.0257236 552.428527,40.925669 548.623932,42.8593275 L526.930576,53.2813451 C523.692554,54.8224155 522.166012,54.4363346 520.073966,51.5439807 C513.225908,41.8930405 504.470742,36.6809472 492.10554,36.6809472 C473.837282,36.6809472 460.326105,51.1600687 460.326105,69.495662 C460.326105,87.8410158 473.837282,102.319053 492.10554,102.319053" id="Fill-9" fill="#877011"></path>
                    <path d="M614.831502,69.995662 C614.831502,43.54803 612.709525,39.3043926 607.499458,39.3043926 C602.289391,39.3043926 600.159823,43.54803 600.159823,69.995662 C600.159823,96.4443786 602.289391,100.696692 607.499458,100.696692 C612.709525,100.696692 614.831502,96.4443786 614.831502,69.995662 Z M649,69.995662 C649,123.088305 635.868029,139.5 607.499458,139.5 C579.122212,139.5 566,123.088305 566,69.995662 C566,16.9030194 579.122212,0.5 607.499458,0.5 C635.868029,0.5 649,16.9030194 649,69.995662 Z" id="Fill-10" fill="#877011"></path>
                    <path d="M696.783302,75.2862405 C694.650358,72.9700109 691.753942,73.7478654 691.753942,77.022871 L691.753942,132.56363 C691.753942,135.65013 690.59733,137 687.495656,137 L662.750683,137 C659.664214,137 658.5,135.65013 658.5,132.56363 L658.5,6.43637049 C658.5,3.35095336 659.664214,2 662.750683,2 L678.609838,2 C683.057091,2 683.828165,3.54704202 686.921151,7.20555805 L736.215612,63.9098482 C738.340954,66.2260777 741.244972,65.4482233 741.244972,62.174301 L741.244972,6.43637049 C741.244972,3.35095336 742.40267,2 745.495656,2 L770.2428,2 C773.3347,2 774.5,3.35095336 774.5,6.43637049 L774.5,132.56363 C774.5,135.65013 773.3347,137 770.2428,137 L754.390162,137 C749.942909,137 749.171835,135.461625 746.078849,131.794442 L696.783302,75.2862405" id="Fill-11" fill="#877011"></path>
                </g>
            </g>
        </g>
    </g>
</svg>