<?xml version="1.0" encoding="UTF-8"?>
<svg width="60px" height="65px" viewBox="0 0 60 65" version="1.1" xmlns="http://www.w3.org/2000/svg" xmlns:xlink="http://www.w3.org/1999/xlink">
    <!-- Generator: Sketch 52.6 (67491) - http://www.bohemiancoding.com/sketch -->
    <title>Logo/Vertical/Small</title>
    <desc>Created with Sketch.</desc>
    <g id="Design" stroke="none" stroke-width="1" fill="none" fill-rule="evenodd">
        <g id="Deacon_Web-XS-V4" transform="translate(-158.000000, -2835.000000)" fill="#FFFFFF">
            <g id="Logo/Vertical/Small" transform="translate(158.000000, 2835.000000)">
                <g id="Logo/Vertical">
                    <g id="DEACON_logo_2">
                        <path d="M22.6942519,9.52184411 C22.6942519,9.33362837 22.6253742,9.26324226 22.4406836,9.26324226 L21.7272526,9.26324226 C21.5430703,9.26324226 21.4736842,9.19276957 21.4736842,9.00455382 L21.4736842,7.22793223 C21.4736842,7.03971648 21.5430703,6.96881092 21.7272526,6.96881092 L25.6416768,6.96881092 C25.8258591,6.96881092 25.8947368,7.03971648 25.8947368,7.22793223 L25.8947368,9.00455382 C25.8947368,9.19276957 25.8258591,9.26324226 25.6416768,9.26324226 L24.9277375,9.26324226 C24.7435552,9.26324226 24.6746775,9.33362837 24.6746775,9.52184411 L24.6746775,14.9460765 C24.6746775,15.1342923 24.6052914,15.2046784 24.4210244,15.2046784 L22.9473967,15.2046784 C22.7632144,15.2046784 22.6942519,15.1342923 22.6942519,14.9460765 L22.6942519,9.52184411" id="Fill-1"></path>
                        <path d="M28.7494092,9.66322236 C28.7494092,9.85143811 28.8249747,9.93385826 29.027598,9.93385826 L31.6039809,9.93385826 C31.8061395,9.93385826 31.8821697,9.85143811 31.8821697,9.66322236 L31.8821697,7.23944681 C31.8821697,7.05123106 31.9577352,6.96881092 32.1598937,6.96881092 L33.8270744,6.96881092 C34.029233,6.96881092 34.1052632,7.05123106 34.1052632,7.23944681 L34.1052632,14.9340425 C34.1052632,15.1222582 34.029233,15.2046784 33.8270744,15.2046784 L32.1598937,15.2046784 C31.9577352,15.2046784 31.8821697,15.1222582 31.8821697,14.9340425 L31.8821697,12.4513954 C31.8821697,12.2631796 31.8061395,12.1807595 31.6039809,12.1807595 L29.027598,12.1807595 C28.8249747,12.1807595 28.7494092,12.2631796 28.7494092,12.4513954 L28.7494092,14.9340425 C28.7494092,15.1222582 28.6738438,15.2046784 28.4717782,15.2046784 L26.8040398,15.2046784 C26.6024389,15.2046784 26.5263158,15.1222582 26.5263158,14.9340425 L26.5263158,7.23944681 C26.5263158,7.05123106 26.6024389,6.96881092 26.8040398,6.96881092 L28.4717782,6.96881092 C28.6738438,6.96881092 28.7494092,7.05123106 28.7494092,7.23944681 L28.7494092,9.66322236" id="Fill-2"></path>
                        <path d="M38.8777544,12.8518949 C39.0811696,12.8518949 39.1578947,12.9337956 39.1578947,13.1220114 L39.1578947,14.9340425 C39.1578947,15.1222582 39.0811696,15.2046784 38.8777544,15.2046784 L35.6484678,15.2046784 C35.4444912,15.2046784 35.3684211,15.1222582 35.3684211,14.9340425 L35.3684211,7.23944681 C35.3684211,7.05123106 35.4444912,6.96881092 35.6484678,6.96881092 L38.8777544,6.96881092 C39.0811696,6.96881092 39.1578947,7.05123106 39.1578947,7.23944681 L39.1578947,9.0514779 C39.1578947,9.23978022 39.0811696,9.32211379 38.8777544,9.32211379 L37.8351345,9.32211379 C37.6317193,9.32211379 37.5556491,9.39258647 37.5556491,9.58080222 L37.5556491,9.78096543 C37.5556491,9.96926775 37.6317193,10.0396539 37.8351345,10.0396539 L38.6236257,10.0396539 C38.8270409,10.0396539 38.9036725,10.122074 38.9036725,10.3102897 L38.9036725,11.8631995 C38.9036725,12.0515019 38.8270409,12.1338354 38.6236257,12.1338354 L37.8351345,12.1338354 C37.6317193,12.1338354 37.5556491,12.204741 37.5556491,12.3929567 L37.5556491,12.5927736 C37.5556491,12.7809894 37.6317193,12.8518949 37.8351345,12.8518949 L38.8777544,12.8518949" id="Fill-3"></path>
                        <path d="M11.9980837,31.8666698 C11.9980837,32.2866568 12.1518318,32.4704574 12.5628548,32.4704574 L13.6673746,32.4704574 C16.3910519,32.4704574 18.0353202,30.816342 18.0353202,28.1920078 C18.0353202,25.5677636 16.3910519,23.9136482 13.6673746,23.9136482 L12.5628548,23.9136482 C12.1518318,23.9136482 11.9980837,24.0974488 11.9980837,24.5173458 L11.9980837,31.8666698 Z M14.1307337,19.005848 C19.2433667,19.005848 22.7368421,22.8376675 22.7368421,28.1663549 C22.7368421,33.4940522 19.2433667,37.3781676 14.1307337,37.3781676 L8.14380666,37.3781676 C7.73375282,37.3781676 7.57894737,37.194367 7.57894737,36.77447 L7.57894737,19.6096356 C7.57894737,19.1896486 7.73375282,19.005848 8.14380666,19.005848 L14.1307337,19.005848 Z" id="Fill-4"></path>
                        <path d="M29.0334841,30.3184062 C28.6183798,30.3184062 28.4630161,30.5022068 28.4630161,30.9221039 L28.4630161,31.8666698 C28.4630161,32.2866568 28.6183798,32.4704574 29.0334841,32.4704574 L37.323201,32.4704574 C37.7383053,32.4704574 37.8947368,32.6542581 37.8947368,33.0741551 L37.8947368,36.77447 C37.8947368,37.194367 37.7383053,37.3781676 37.323201,37.3781676 L24.5704681,37.3781676 C24.1564316,37.3781676 24,37.194367 24,36.77447 L24,19.6096356 C24,19.1896486 24.1564316,19.005848 24.5704681,19.005848 L37.323201,19.005848 C37.7383053,19.005848 37.8947368,19.1896486 37.8947368,19.6096356 L37.8947368,23.3099505 C37.8947368,23.7309277 37.7383053,23.9136482 37.323201,23.9136482 L29.0334841,23.9136482 C28.6183798,23.9136482 28.4630161,24.0974488 28.4630161,24.5173458 L28.4630161,25.4886447 C28.4630161,25.9085418 28.6183798,26.0923424 29.0334841,26.0923424 L36.0260113,26.0923424 C36.4412045,26.0923424 36.5974581,26.276143 36.5974581,26.6961301 L36.5974581,29.7147085 C36.5974581,30.1346056 36.4412045,30.3184062 36.0260113,30.3184062 L29.0334841,30.3184062" id="Fill-5"></path>
                        <path d="M45.5508237,29.6879755 C45.4991049,29.8984191 45.4737351,30.0822197 45.4737351,30.1869915 C45.4737351,30.3964449 45.6555075,30.4754738 45.9408066,30.4754738 L46.9013877,30.4754738 C47.1866867,30.4754738 47.3420212,30.370702 47.3420212,30.1869915 C47.3420212,30.0822197 47.3166514,29.8984191 47.2649326,29.6879755 L46.7978611,27.6150431 C46.7196152,27.2730948 46.6160886,27.0636413 46.4078781,27.0636413 C46.2007359,27.0636413 46.1225791,27.2730948 46.0443332,27.6150431 L45.5508237,29.6879755 Z M44.513154,36.6697882 C44.3577306,37.2990488 44.1496091,37.3781676 43.4489573,37.3781676 L40.2565452,37.3781676 C39.9183701,37.3781676 39.7894737,37.2211 39.7894737,36.9582706 C39.7894737,36.8534988 39.8148435,36.77447 39.8412815,36.6430552 L44.1242393,19.6096356 C44.2532247,19.1373527 44.4613462,19.005848 44.8766989,19.005848 L47.9654954,19.005848 C48.3808481,19.005848 48.5879013,19.1373527 48.717866,19.6096356 L53.0008238,36.6430552 C53.0261936,36.77447 53.0526316,36.8534988 53.0526316,36.9582706 C53.0526316,37.2211 52.9226669,37.3781676 52.5855601,37.3781676 L49.36671,37.3781676 C48.6661472,37.3781676 48.4590049,37.2990488 48.3026023,36.6697882 L47.9137766,35.0679686 C47.7837229,34.5956857 47.6019505,34.491004 47.1866867,34.491004 L45.6290695,34.491004 C45.2138058,34.491004 45.0066635,34.5956857 44.9020687,35.0679686 L44.513154,36.6697882 Z" id="Fill-6"></path>
                        <path d="M14.6985576,53.9024816 C16.3720815,53.9024816 17.5568944,53.1900214 18.4837937,51.869209 C18.7668804,51.4736895 18.9734763,51.4210924 19.4117529,51.6316619 L22.3476405,53.0578496 C22.8624962,53.3211068 22.7849454,53.7176221 22.5794095,54.1659198 C21.1628276,57.2018873 18.0979831,58.9181287 14.6723246,58.9181287 C9.46944665,58.9181287 5.68421053,54.9320634 5.68421053,49.4146162 C5.68421053,43.8983459 9.46944665,39.9122807 14.6723246,39.9122807 C18.0979831,39.9122807 21.1628276,41.6275263 22.5794095,44.6634937 C22.7849454,45.1116104 22.8624962,45.5082162 22.3476405,45.7725597 L19.4117529,47.1975706 C18.9734763,47.4082307 18.7668804,47.355543 18.4837937,46.960114 C17.5568944,45.640388 16.3720815,44.9279278 14.6985576,44.9279278 C12.2261196,44.9279278 10.3974058,46.9074264 10.3974058,49.4146162 C10.3974058,51.922983 12.2261196,53.9024816 14.6985576,53.9024816" id="Fill-7"></path>
                        <path d="M30.6884212,49.4146162 C30.6884212,45.7983604 30.3978253,45.218072 29.6841652,45.218072 C28.9705958,45.218072 28.6789118,45.7983604 28.6789118,49.4146162 C28.6789118,53.0309626 28.9705958,53.6123374 29.6841652,53.6123374 C30.3978253,53.6123374 30.6884212,53.0309626 30.6884212,49.4146162 Z M35.3684211,49.4146162 C35.3684211,56.674196 33.5698091,58.9181287 29.6841652,58.9181287 C25.7974333,58.9181287 24,56.674196 24,49.4146162 C24,42.1552175 25.7974333,39.9122807 29.6841652,39.9122807 C33.5698091,39.9122807 35.3684211,42.1552175 35.3684211,49.4146162 Z" id="Fill-8"></path>
                        <path d="M42.4743033,50.5195082 C42.183978,50.2042044 41.7896879,50.3100558 41.7896879,50.7556036 L41.7896879,58.3143439 C41.7896879,58.7343289 41.6322065,58.9181287 41.2101202,58.9181287 L37.8418231,58.9181287 C37.4218125,58.9181287 37.2631579,58.7343289 37.2631579,58.3143439 L37.2631579,41.1495037 C37.2631579,40.7296087 37.4218125,40.545809 37.8418231,40.545809 L40.0005367,40.545809 C40.605915,40.545809 40.7108726,40.7563415 41.1318759,41.2542749 L47.8416667,48.9711622 C48.130909,49.286376 48.5262821,49.1806147 48.5262821,48.7350669 L48.5262821,41.1495037 C48.5262821,40.7296087 48.6837635,40.545809 49.1047668,40.545809 L52.4731542,40.545809 C52.8941575,40.545809 53.0526316,40.7296087 53.0526316,41.1495037 L53.0526316,58.3143439 C53.0526316,58.7343289 52.8941575,58.9181287 52.4731542,58.9181287 L50.3153431,58.9181287 C49.7100549,58.9181287 49.6050974,58.7085862 49.1840941,58.2096627 L42.4743033,50.5195082" id="Fill-9"></path>
                        <path d="M2.17634948,62.4646991 L57.82374,62.4646991 L57.82374,2.15509528 L2.17634948,2.15509528 L2.17634948,62.4646991 Z M58.2594217,64.619883 L1.7406678,64.619883 C0.781040193,64.619883 0,63.8463818 0,62.8961259 L0,1.72473218 C0,0.773412566 0.781040193,0 1.7406678,0 L58.2594217,0 C59.2190493,0 60,0.773412566 60,1.72473218 L60,62.8961259 C60,63.8463818 59.2190493,64.619883 58.2594217,64.619883 Z" id="Fill-10"></path>
                    </g>
                </g>
            </g>
        </g>
    </g>
</svg>