<?xml version="1.0" encoding="UTF-8"?>
<svg width="90px" height="97px" viewBox="0 0 90 97" version="1.1" xmlns="http://www.w3.org/2000/svg" xmlns:xlink="http://www.w3.org/1999/xlink">
    <!-- Generator: Sketch 52.5 (67469) - http://www.bohemiancoding.com/sketch -->
    <title>DEACON_logo_2</title>
    <desc>Created with Sketch.</desc>
    <g id="Symbols" stroke="none" stroke-width="1" fill="none" fill-rule="evenodd">
        <g id="Logo/Vertical" fill="#FFFFFF">
            <g id="DEACON_logo_2">
                <path d="M34.0413779,14.2095212 C34.0413779,13.9286454 33.9380613,13.8236077 33.6610254,13.8236077 L32.5908788,13.8236077 C32.3146054,13.8236077 32.2105263,13.7184407 32.2105263,13.4375649 L32.2105263,10.7862989 C32.2105263,10.5054231 32.3146054,10.3996101 32.5908788,10.3996101 L38.4625152,10.3996101 C38.7387887,10.3996101 38.8421053,10.5054231 38.8421053,10.7862989 L38.8421053,13.4375649 C38.8421053,13.7184407 38.7387887,13.8236077 38.4625152,13.8236077 L37.3916062,13.8236077 C37.1153328,13.8236077 37.0120162,13.9286454 37.0120162,14.2095212 L37.0120162,22.3041449 C37.0120162,22.5850207 36.9079371,22.6900585 36.6315366,22.6900585 L34.421095,22.6900585 C34.1448216,22.6900585 34.0413779,22.5850207 34.0413779,22.3041449 L34.0413779,14.2095212" id="Fill-1"></path>
                <path d="M43.1241139,14.4205011 C43.1241139,14.7013769 43.2374621,14.8243731 43.541397,14.8243731 L47.4059714,14.8243731 C47.7092093,14.8243731 47.8232546,14.7013769 47.8232546,14.4205011 L47.8232546,10.8034822 C47.8232546,10.5226064 47.9366028,10.3996101 48.2398406,10.3996101 L50.7406116,10.3996101 C51.0438494,10.3996101 51.1578947,10.5226064 51.1578947,10.8034822 L51.1578947,22.2861865 C51.1578947,22.5670623 51.0438494,22.6900585 50.7406116,22.6900585 L48.2398406,22.6900585 C47.9366028,22.6900585 47.8232546,22.5670623 47.8232546,22.2861865 L47.8232546,18.5813131 C47.8232546,18.3004373 47.7092093,18.1774411 47.4059714,18.1774411 L43.541397,18.1774411 C43.2374621,18.1774411 43.1241139,18.3004373 43.1241139,18.5813131 L43.1241139,22.2861865 C43.1241139,22.5670623 43.0107657,22.6900585 42.7076672,22.6900585 L40.2060597,22.6900585 C39.9036584,22.6900585 39.7894737,22.5670623 39.7894737,22.2861865 L39.7894737,10.8034822 C39.7894737,10.5226064 39.9036584,10.3996101 40.2060597,10.3996101 L42.7076672,10.3996101 C43.0107657,10.3996101 43.1241139,10.5226064 43.1241139,10.8034822 L43.1241139,14.4205011" id="Fill-2"></path>
                <path d="M58.3166316,19.1789817 C58.6217544,19.1789817 58.7368421,19.3012027 58.7368421,19.5820785 L58.7368421,22.2861865 C58.7368421,22.5670623 58.6217544,22.6900585 58.3166316,22.6900585 L53.4727018,22.6900585 C53.1667368,22.6900585 53.0526316,22.5670623 53.0526316,22.2861865 L53.0526316,10.8034822 C53.0526316,10.5226064 53.1667368,10.3996101 53.4727018,10.3996101 L58.3166316,10.3996101 C58.6217544,10.3996101 58.7368421,10.5226064 58.7368421,10.8034822 L58.7368421,13.5075901 C58.7368421,13.7885951 58.6217544,13.9114621 58.3166316,13.9114621 L56.7527018,13.9114621 C56.4475789,13.9114621 56.3334737,14.016629 56.3334737,14.2975049 L56.3334737,14.5962099 C56.3334737,14.8772149 56.4475789,14.9822527 56.7527018,14.9822527 L57.9354386,14.9822527 C58.2405614,14.9822527 58.3555088,15.1052489 58.3555088,15.3861247 L58.3555088,17.7035439 C58.3555088,17.9845489 58.2405614,18.1074159 57.9354386,18.1074159 L56.7527018,18.1074159 C56.4475789,18.1074159 56.3334737,18.2132289 56.3334737,18.4941047 L56.3334737,18.792293 C56.3334737,19.0731688 56.4475789,19.1789817 56.7527018,19.1789817 L58.3166316,19.1789817" id="Fill-3"></path>
                <path d="M17.9971255,47.5548764 C17.9971255,48.1816264 18.2277477,48.4559134 18.8442823,48.4559134 L20.5010619,48.4559134 C24.5865779,48.4559134 27.0529803,45.9874642 27.0529803,42.0711501 C27.0529803,38.1549703 24.5865779,35.6865211 20.5010619,35.6865211 L18.8442823,35.6865211 C18.2277477,35.6865211 17.9971255,35.9608082 17.9971255,36.5874238 L17.9971255,47.5548764 Z M21.1961005,28.3625731 C28.86505,28.3625731 34.1052632,34.0808269 34.1052632,42.0328681 C34.1052632,49.9834317 28.86505,55.7797271 21.1961005,55.7797271 L12.21571,55.7797271 C11.6006292,55.7797271 11.3684211,55.50544 11.3684211,54.8788244 L11.3684211,29.2636101 C11.3684211,28.6368602 11.6006292,28.3625731 12.21571,28.3625731 L21.1961005,28.3625731 Z" id="Fill-4"></path>
                <path d="M43.5502262,45.2443908 C42.9275698,45.2443908 42.6945241,45.5186778 42.6945241,46.1452935 L42.6945241,47.5548764 C42.6945241,48.1816264 42.9275698,48.4559134 43.5502262,48.4559134 L55.9848015,48.4559134 C56.6074579,48.4559134 56.8421053,48.7302005 56.8421053,49.3568161 L56.8421053,54.8788244 C56.8421053,55.50544 56.6074579,55.7797271 55.9848015,55.7797271 L36.8557021,55.7797271 C36.2346474,55.7797271 36,55.50544 36,54.8788244 L36,29.2636101 C36,28.6368602 36.2346474,28.3625731 36.8557021,28.3625731 L55.9848015,28.3625731 C56.6074579,28.3625731 56.8421053,28.6368602 56.8421053,29.2636101 L56.8421053,34.7856184 C56.8421053,35.4138459 56.6074579,35.6865211 55.9848015,35.6865211 L43.5502262,35.6865211 C42.9275698,35.6865211 42.6945241,35.9608082 42.6945241,36.5874238 L42.6945241,38.0369006 C42.6945241,38.6635162 42.9275698,38.9378033 43.5502262,38.9378033 L54.0390169,38.9378033 C54.6618068,38.9378033 54.8961872,39.2120903 54.8961872,39.8388403 L54.8961872,44.3434881 C54.8961872,44.9701037 54.6618068,45.2443908 54.0390169,45.2443908 L43.5502262,45.2443908" id="Fill-5"></path>
                <path d="M68.3262355,44.3035942 C68.2486573,44.6176408 68.2106026,44.8919279 68.2106026,45.0482796 C68.2106026,45.3608486 68.4832613,45.478784 68.9112099,45.478784 L70.3520815,45.478784 C70.7800301,45.478784 71.0130318,45.3224323 71.0130318,45.0482796 C71.0130318,44.8919279 70.9749771,44.6176408 70.8973989,44.3035942 L70.1967916,41.2101413 C70.0794228,40.6998491 69.9241329,40.3872801 69.6118172,40.3872801 C69.3011038,40.3872801 69.1838686,40.6998491 69.0664998,41.2101413 L68.3262355,44.3035942 Z M66.769731,54.722607 C66.5365958,55.6616574 66.2244137,55.7797271 65.173436,55.7797271 L60.3848178,55.7797271 C59.8775552,55.7797271 59.6842105,55.5453339 59.6842105,55.1531115 C59.6842105,54.9967598 59.7222652,54.8788244 59.7619223,54.6827132 L66.1863589,29.2636101 C66.3798371,28.5588186 66.6920193,28.3625731 67.3150484,28.3625731 L71.948243,28.3625731 C72.5712721,28.3625731 72.881852,28.5588186 73.076799,29.2636101 L79.5012356,54.6827132 C79.5392904,54.8788244 79.5789474,54.9967598 79.5789474,55.1531115 C79.5789474,55.5453339 79.3840004,55.7797271 78.8783401,55.7797271 L74.0500649,55.7797271 C72.9992207,55.7797271 72.6885074,55.6616574 72.4539034,54.722607 L71.8706648,52.3321994 C71.6755844,51.6274079 71.4029257,51.4711905 70.7800301,51.4711905 L68.4436043,51.4711905 C67.8207087,51.4711905 67.5099953,51.6274079 67.3531031,52.3321994 L66.769731,54.722607 Z" id="Fill-6"></path>
                <path d="M22.0478364,80.4390879 C24.5581223,80.4390879 26.3353417,79.3758781 27.7256905,77.4048195 C28.1503206,76.8145828 28.4602145,76.7360917 29.1176293,77.0503262 L33.5214607,79.1786371 C34.2937443,79.5714979 34.1774182,80.1632207 33.8691142,80.8322188 C31.7442414,85.3628164 27.1469747,87.9239766 22.0084869,87.9239766 C14.20417,87.9239766 8.52631579,81.9755408 8.52631579,73.7418119 C8.52631579,65.5098393 14.20417,59.5614035 22.0084869,59.5614035 C27.1469747,59.5614035 31.7442414,62.1210777 33.8691142,66.6516753 C34.1774182,67.3204031 34.2937443,67.9122611 33.5214607,68.306743 L29.1176293,70.4332976 C28.4602145,70.7476673 28.1503206,70.6690411 27.7256905,70.0789394 C26.3353417,68.109502 24.5581223,67.0462923 22.0478364,67.0462923 C18.3391794,67.0462923 15.5961087,70.0003132 15.5961087,73.7418119 C15.5961087,77.4850669 18.3391794,80.4390879 22.0478364,80.4390879" id="Fill-7"></path>
                <path d="M46.0326318,73.7418119 C46.0326318,68.3452455 45.5967379,67.4792767 44.5262478,67.4792767 C43.4558937,67.4792767 43.0183677,68.3452455 43.0183677,73.7418119 C43.0183677,79.1385135 43.4558937,80.0061034 44.5262478,80.0061034 C45.5967379,80.0061034 46.0326318,79.1385135 46.0326318,73.7418119 Z M53.0526316,73.7418119 C53.0526316,84.5753386 50.3547136,87.9239766 44.5262478,87.9239766 C38.6961499,87.9239766 36,84.5753386 36,73.7418119 C36,62.9085554 38.6961499,59.5614035 44.5262478,59.5614035 C50.3547136,59.5614035 53.0526316,62.9085554 53.0526316,73.7418119 Z" id="Fill-8"></path>
                <path d="M63.711455,75.3906508 C63.275967,74.9201205 62.6845318,75.0780833 62.6845318,75.7429776 L62.6845318,87.022944 C62.6845318,87.6496909 62.4483097,87.9239766 61.8151803,87.9239766 L56.7627346,87.9239766 C56.1327188,87.9239766 55.8947368,87.6496909 55.8947368,87.022944 L55.8947368,61.4077209 C55.8947368,60.7811083 56.1327188,60.5068226 56.7627346,60.5068226 L60.000805,60.5068226 C60.9088726,60.5068226 61.0663088,60.821002 61.6978138,61.5640718 L71.7625,73.0800421 C72.1963635,73.5504381 72.7894231,73.3926096 72.7894231,72.7277153 L72.7894231,61.4077209 C72.7894231,60.7811083 73.0256453,60.5068226 73.6571502,60.5068226 L78.7097312,60.5068226 C79.3412362,60.5068226 79.5789474,60.7811083 79.5789474,61.4077209 L79.5789474,87.022944 C79.5789474,87.6496909 79.3412362,87.9239766 78.7097312,87.9239766 L75.4730146,87.9239766 C74.5650824,87.9239766 74.4076461,87.6112748 73.7761412,86.8667274 L63.711455,75.3906508" id="Fill-9"></path>
                <path d="M3.26452421,93.216551 L86.7356101,93.216551 L86.7356101,3.21606526 L3.26452421,3.21606526 L3.26452421,93.216551 Z M87.3891326,96.4327485 L2.6110017,96.4327485 C1.17156029,96.4327485 0,95.2784467 0,93.8603725 L0,2.5738311 C0,1.15416952 1.17156029,0 2.6110017,0 L87.3891326,0 C88.828574,0 90,1.15416952 90,2.5738311 L90,93.8603725 C90,95.2784467 88.828574,96.4327485 87.3891326,96.4327485 Z" id="Fill-10"></path>
            </g>
        </g>
    </g>
</svg>