<?xml version="1.0" encoding="UTF-8"?>
<svg width="198px" height="36px" viewBox="0 0 198 36" version="1.1" xmlns="http://www.w3.org/2000/svg" xmlns:xlink="http://www.w3.org/1999/xlink">
    <!-- Generator: Sketch 52.5 (67469) - http://www.bohemiancoding.com/sketch -->
    <title>Logo/Horizontal/Large</title>
    <desc>Created with Sketch.</desc>
    <defs>
        <polygon id="path-1" points="0.0165690377 0.168369231 80.595113 0.168369231 80.595113 34.6760308 0.0165690377 34.6760308"></polygon>
    </defs>
    <g id="Logo/Horizontal/Large" stroke="none" stroke-width="1" fill="none" fill-rule="evenodd">
        <g id="DEACON_logo_1">
            <g id="Group-6" transform="translate(0.000000, 0.553846)">
                <mask id="mask-2" fill="white">
                    <use xlink:href="#path-1"></use>
                </mask>
                <g id="Clip-2"></g>
                <path d="M63.8062594,21.4161231 C63.0197824,21.4161231 62.725682,21.7611692 62.725682,22.5501231 L62.725682,24.3240923 C62.725682,25.1130462 63.0197824,25.4580923 63.8062594,25.4580923 L79.5123264,25.4580923 C80.2990795,25.4580923 80.595113,25.8034154 80.595113,26.5920923 L80.595113,33.5420308 C80.595113,34.3309846 80.2990795,34.6760308 79.5123264,34.6760308 L55.3505272,34.6760308 C54.5659833,34.6760308 54.2699498,34.3309846 54.2699498,33.5420308 L54.2699498,1.30209231 C54.2699498,0.513415385 54.5659833,0.168369231 55.3505272,0.168369231 L79.5123264,0.168369231 C80.2990795,0.168369231 80.595113,0.513415385 80.595113,1.30209231 L80.595113,8.25230769 C80.595113,9.04292308 80.2990795,9.38630769 79.5123264,9.38630769 L63.8062594,9.38630769 C63.0197824,9.38630769 62.725682,9.73135385 62.725682,10.5200308 L62.725682,12.3444 C62.725682,13.1330769 63.0197824,13.4784 63.8062594,13.4784 L77.0545858,13.4784 C77.8413389,13.4784 78.1373724,13.8237231 78.1373724,14.6124 L78.1373724,20.2818462 C78.1373724,21.0708 77.8413389,21.4161231 77.0545858,21.4161231 L63.8062594,21.4161231" id="Fill-1" fill="white" mask="url(#mask-2)"></path>
                <path d="M4.97153975,31.6722462 C4.60508787,31.6722462 4.467841,31.8098769 4.467841,32.1784615 L4.467841,33.6021231 C4.467841,33.9696 4.33087029,34.1080615 3.96414226,34.1080615 L0.504527197,34.1080615 C0.138075314,34.1080615 0,33.9696 0,33.6021231 L0,25.7909538 C0,25.4232 0.138075314,25.2858462 0.504527197,25.2858462 L3.96414226,25.2858462 C4.33087029,25.2858462 4.467841,25.4232 4.467841,25.7909538 L4.467841,27.2154462 C4.467841,27.5832 4.60508787,27.7205538 4.97153975,27.7205538 L15.5343013,27.7205538 C15.9007531,27.7205538 16.0377238,27.8590154 16.0377238,28.2264923 L16.0377238,31.1674154 C16.0377238,31.5348923 15.9007531,31.6722462 15.5343013,31.6722462 L4.97153975,31.6722462" id="Fill-3" fill="white" mask="url(#mask-2)"></path>
                <path d="M5.24686192,19.6285846 C5.61331381,19.6285846 5.77375732,19.4912308 5.77375732,19.1226462 L5.77375732,14.4365538 C5.77375732,14.0688 5.61331381,13.9303385 5.24686192,13.9303385 L0.526895397,13.9303385 C0.160443515,13.9303385 0,13.7929846 0,13.4252308 L0,10.3926462 C0,10.0251692 0.160443515,9.88670769 0.526895397,9.88670769 L15.5108285,9.88670769 C15.8772803,9.88670769 16.0377238,10.0251692 16.0377238,10.3926462 L16.0377238,13.4252308 C16.0377238,13.7929846 15.8772803,13.9303385 15.5108285,13.9303385 L10.6762594,13.9303385 C10.3098075,13.9303385 10.149364,14.0688 10.149364,14.4365538 L10.149364,19.1226462 C10.149364,19.4912308 10.3098075,19.6285846 10.6762594,19.6285846 L15.5108285,19.6285846 C15.8772803,19.6285846 16.0377238,19.7662154 16.0377238,20.1336923 L16.0377238,23.1671077 C16.0377238,23.5340308 15.8772803,23.6719385 15.5108285,23.6719385 L0.526895397,23.6719385 C0.160443515,23.6719385 0,23.5340308 0,23.1671077 L0,20.1336923 C0,19.7662154 0.160443515,19.6285846 0.526895397,19.6285846 L5.24686192,19.6285846" id="Fill-4" fill="white" mask="url(#mask-2)"></path>
                <path d="M11.4561088,1.24033846 C11.4561088,0.872584615 11.6157238,0.734123077 11.9821757,0.734123077 L15.5108285,0.734123077 C15.8772803,0.734123077 16.0377238,0.872584615 16.0377238,1.24033846 L16.0377238,7.07510769 C16.0377238,7.44369231 15.8772803,7.58104615 15.5108285,7.58104615 L0.526895397,7.58104615 C0.160443515,7.58104615 0,7.44369231 0,7.07510769 L0,1.24033846 C0,0.872584615 0.160443515,0.734123077 0.526895397,0.734123077 L4.05554812,0.734123077 C4.42227615,0.734123077 4.58271967,0.872584615 4.58271967,1.24033846 L4.58271967,3.12396923 C4.58271967,3.49172308 4.71969038,3.62907692 5.08641841,3.62907692 L5.4763431,3.62907692 C5.84279498,3.62907692 5.97976569,3.49172308 5.97976569,3.12396923 L5.97976569,1.69947692 C5.97976569,1.332 6.14048536,1.19353846 6.50693724,1.19353846 L9.53078661,1.19353846 C9.89751464,1.19353846 10.0579582,1.332 10.0579582,1.69947692 L10.0579582,3.12396923 C10.0579582,3.49172308 10.1960335,3.62907692 10.5624854,3.62907692 L10.9515816,3.62907692 C11.3180335,3.62907692 11.4561088,3.49172308 11.4561088,3.12396923 L11.4561088,1.24033846" id="Fill-5" fill="white" mask="url(#mask-2)"></path>
            </g>
            <path d="M30.9517908,24.8768308 C30.9517908,25.6657846 31.2461674,26.0108308 32.0326444,26.0108308 L34.1460251,26.0108308 C39.3575397,26.0108308 42.5037238,22.9040308 42.5037238,17.9750769 C42.5037238,13.0458462 39.3575397,9.93904615 34.1460251,9.93904615 L32.0326444,9.93904615 C31.2461674,9.93904615 30.9517908,10.2843692 30.9517908,11.0730462 L30.9517908,24.8768308 Z M35.0327448,0.721107692 C44.8153808,0.721107692 51.4998828,7.91806154 51.4998828,17.9268923 C51.4998828,27.9335077 44.8153808,35.2290462 35.0327448,35.2290462 L23.5769121,35.2290462 C22.7920921,35.2290462 22.4960586,34.8837231 22.4960586,34.0950462 L22.4960586,1.85483077 C22.4960586,1.06615385 22.7920921,0.721107692 23.5769121,0.721107692 L35.0327448,0.721107692 Z" id="Fill-7" fill="white"></path>
            <path d="M94.4454477,20.7852923 C94.3474142,21.1807385 94.299364,21.5257846 94.299364,21.7226769 C94.299364,22.1156308 94.6434477,22.2646154 95.1838745,22.2646154 L97.0031548,22.2646154 C97.5435816,22.2646154 97.837682,22.0677231 97.837682,21.7226769 C97.837682,21.5257846 97.7896318,21.1807385 97.6915983,20.7852923 L96.8070879,16.8917538 C96.658795,16.2495692 96.462728,15.8560615 96.0683849,15.8560615 C95.676251,15.8560615 95.5279582,16.2495692 95.3799414,16.8917538 L94.4454477,20.7852923 Z M92.4800837,33.8987077 C92.1857071,35.0808923 91.7916402,35.2293231 90.4647364,35.2293231 L84.4184184,35.2293231 C83.7780251,35.2293231 83.5339079,34.9344 83.5339079,34.4406462 C83.5339079,34.2440308 83.5819582,34.0953231 83.6319414,33.8488615 L91.74359,1.85538462 C91.9877071,0.9684 92.3817741,0.721661538 93.1685272,0.721661538 L99.0185021,0.721661538 C99.8049791,0.721661538 100.197389,0.9684 100.443439,1.85538462 L108.555088,33.8488615 C108.603138,34.0953231 108.653121,34.2440308 108.653121,34.4406462 C108.653121,34.9344 108.407071,35.2293231 107.768335,35.2293231 L101.67231,35.2293231 C100.345406,35.2293231 99.9529958,35.0808923 99.6569623,33.8987077 L98.9204686,30.8904923 C98.6744184,30.0032308 98.3300586,29.8066154 97.5435816,29.8066154 L94.5934644,29.8066154 C93.8069874,29.8066154 93.4145774,30.0032308 93.2165774,30.8904923 L92.4800837,33.8987077 Z" id="Fill-8" fill="white"></path>
            <path d="M126.041774,26.3567077 C129.236008,26.3567077 131.497682,25.0258154 133.266703,22.5595385 C133.80713,21.8209846 134.201473,21.7226769 135.037933,22.1156308 L140.641858,24.7793538 C141.624678,25.2708923 141.476661,26.0113846 141.084251,26.8482462 C138.38046,32.5179692 132.530209,35.7230769 125.991791,35.7230769 C116.060862,35.7230769 108.835933,28.2791077 108.835933,17.9753538 C108.835933,7.67381538 116.060862,0.229846154 125.991791,0.229846154 C132.530209,0.229846154 138.38046,3.43301538 141.084251,9.10273846 C141.476661,9.9396 141.624678,10.6800923 140.641858,11.1738462 L135.037933,13.8350769 C134.201473,14.2285846 133.80713,14.13 133.266703,13.3914462 C131.497682,10.9271077 129.236008,9.59621538 126.041774,9.59621538 C121.322636,9.59621538 117.832368,13.2934154 117.832368,17.9753538 C117.832368,22.6597846 121.322636,26.3567077 126.041774,26.3567077" id="Fill-9" fill="white"></path>
            <path d="M156.810201,17.9753538 C156.810201,11.2220308 156.269774,10.1384308 154.94287,10.1384308 C153.615967,10.1384308 153.073607,11.2220308 153.073607,17.9753538 C153.073607,24.7289538 153.615967,25.8147692 154.94287,25.8147692 C156.269774,25.8147692 156.810201,24.7289538 156.810201,17.9753538 Z M165.512259,17.9753538 C165.512259,31.5324 162.167799,35.7230769 154.94287,35.7230769 C147.715732,35.7230769 144.373757,31.5324 144.373757,17.9753538 C144.373757,4.41830769 147.715732,0.229846154 154.94287,0.229846154 C162.167799,0.229846154 165.512259,4.41830769 165.512259,17.9753538 Z" id="Fill-10" fill="white"></path>
            <path d="M178.235623,19.4555077 C177.693264,18.8634462 176.95677,19.0622769 176.95677,19.8994154 L176.95677,34.0964308 C176.95677,34.8853846 176.662669,35.2304308 175.873983,35.2304308 L169.581891,35.2304308 C168.797071,35.2304308 168.501038,34.8853846 168.501038,34.0964308 L168.501038,1.85649231 C168.501038,1.06781538 168.797071,0.722492308 169.581891,0.722492308 L173.614519,0.722492308 C174.745356,0.722492308 174.941423,1.11793846 175.7279,2.05310769 L188.262377,16.5475385 C188.802803,17.1396 189.54123,16.9407692 189.54123,16.1039077 L189.54123,1.85649231 C189.54123,1.06781538 189.835607,0.722492308 190.622084,0.722492308 L196.914728,0.722492308 C197.700929,0.722492308 197.997238,1.06781538 197.997238,1.85649231 L197.997238,34.0964308 C197.997238,34.8853846 197.700929,35.2304308 196.914728,35.2304308 L192.883757,35.2304308 C191.752921,35.2304308 191.556854,34.8372 190.770377,33.8998154 L178.235623,19.4555077" id="Fill-11" fill="white"></path>
        </g>
    </g>
</svg>
