<?xml version="1.0" encoding="UTF-8"?>
<svg width="160px" height="30px" viewBox="0 0 160 30" version="1.1" xmlns="http://www.w3.org/2000/svg" xmlns:xlink="http://www.w3.org/1999/xlink">
    <!-- Generator: Sketch 52.5 (67469) - http://www.bohemiancoding.com/sketch -->
    <title>Logo/Horizontal/Small</title>
    <desc>Created with Sketch.</desc>
    <defs>
        <polygon id="path-1" points="0.0133891213 0.136055944 65.127364 0.136055944 65.127364 28.021035 0.0133891213 28.021035"></polygon>
    </defs>
    <g id="Logo/Horizontal/Small" stroke="none" stroke-width="1" fill="none" fill-rule="evenodd">
        <g id="DEACON_logo_1" transform="translate(0.000000, -0.000000)">
            <g id="Group-6" transform="translate(0.000000, 0.447552)">
                <mask id="mask-2" fill="white">
                    <use xlink:href="#path-1"></use>
                </mask>
                <g id="Clip-2"></g>
                <path d="M51.5606137,17.305958 C50.9250767,17.305958 50.6874198,17.5847832 50.6874198,18.2223217 L50.6874198,19.6558322 C50.6874198,20.2933706 50.9250767,20.5721958 51.5606137,20.5721958 L64.2523849,20.5721958 C64.888145,20.5721958 65.127364,20.8512448 65.127364,21.4885594 L65.127364,27.1046713 C65.127364,27.7422098 64.888145,28.021035 64.2523849,28.021035 L44.7276987,28.021035 C44.0937238,28.021035 43.8545049,27.7422098 43.8545049,27.1046713 L43.8545049,1.0521958 C43.8545049,0.414881119 44.0937238,0.136055944 44.7276987,0.136055944 L64.2523849,0.136055944 C64.888145,0.136055944 65.127364,0.414881119 65.127364,1.0521958 L65.127364,6.66853147 C65.127364,7.30741259 64.888145,7.5848951 64.2523849,7.5848951 L51.5606137,7.5848951 C50.9250767,7.5848951 50.6874198,7.86372028 50.6874198,8.50103497 L50.6874198,9.97527273 C50.6874198,10.6125874 50.9250767,10.8916364 51.5606137,10.8916364 L62.2663319,10.8916364 C62.9020921,10.8916364 63.141311,11.1706853 63.141311,11.808 L63.141311,16.3893706 C63.141311,17.0269091 62.9020921,17.305958 62.2663319,17.305958 L51.5606137,17.305958" id="Fill-1" fill="#1A1919" mask="url(#mask-2)"></path>
                <path d="M4.01740586,25.5937343 C3.72128312,25.5937343 3.61037657,25.704951 3.61037657,26.0027972 L3.61037657,27.1532308 C3.61037657,27.4501818 3.49969317,27.5620699 3.20334728,27.5620699 L0.407698745,27.5620699 C0.111576011,27.5620699 0,27.4501818 0,27.1532308 L0,20.8411748 C0,20.544 0.111576011,20.433007 0.407698745,20.433007 L3.20334728,20.433007 C3.49969317,20.433007 3.61037657,20.544 3.61037657,20.8411748 L3.61037657,21.9922797 C3.61037657,22.2894545 3.72128312,22.4004476 4.01740586,22.4004476 L12.5529707,22.4004476 C12.8490934,22.4004476 12.9597768,22.5123357 12.9597768,22.8092867 L12.9597768,25.1857902 C12.9597768,25.4827413 12.8490934,25.5937343 12.5529707,25.5937343 L4.01740586,25.5937343" id="Fill-3" fill="#1A1919" mask="url(#mask-2)"></path>
                <path d="M4.23988842,15.8614825 C4.53601116,15.8614825 4.66566248,15.7504895 4.66566248,15.4526434 L4.66566248,11.6659021 C4.66566248,11.3687273 4.53601116,11.2568392 4.23988842,11.2568392 L0.425774059,11.2568392 C0.129651325,11.2568392 0,11.1458462 0,10.8486713 L0,8.3980979 C0,8.10114685 0.129651325,7.98925874 0.425774059,7.98925874 L12.5340028,7.98925874 C12.8301255,7.98925874 12.9597768,8.10114685 12.9597768,8.3980979 L12.9597768,10.8486713 C12.9597768,11.1458462 12.8301255,11.2568392 12.5340028,11.2568392 L8.62728033,11.2568392 C8.3311576,11.2568392 8.20150628,11.3687273 8.20150628,11.6659021 L8.20150628,15.4526434 C8.20150628,15.7504895 8.3311576,15.8614825 8.62728033,15.8614825 L12.5340028,15.8614825 C12.8301255,15.8614825 12.9597768,15.9726993 12.9597768,16.2696503 L12.9597768,18.7208951 C12.9597768,19.0173986 12.8301255,19.1288392 12.5340028,19.1288392 L0.425774059,19.1288392 C0.129651325,19.1288392 0,19.0173986 0,18.7208951 L0,16.2696503 C0,15.9726993 0.129651325,15.8614825 0.425774059,15.8614825 L4.23988842,15.8614825" id="Fill-4" fill="#1A1919" mask="url(#mask-2)"></path>
                <path d="M9.25746165,1.00229371 C9.25746165,0.705118881 9.38644351,0.593230769 9.68256625,0.593230769 L12.5340028,0.593230769 C12.8301255,0.593230769 12.9597768,0.705118881 12.9597768,1.00229371 L12.9597768,5.71725874 C12.9597768,6.0151049 12.8301255,6.1260979 12.5340028,6.1260979 L0.425774059,6.1260979 C0.129651325,6.1260979 0,6.0151049 0,5.71725874 L0,1.00229371 C0,0.705118881 0.129651325,0.593230769 0.425774059,0.593230769 L3.2772106,0.593230769 C3.57355649,0.593230769 3.70320781,0.705118881 3.70320781,1.00229371 L3.70320781,2.52441958 C3.70320781,2.82159441 3.81389121,2.93258741 4.1102371,2.93258741 L4.42532775,2.93258741 C4.72145049,2.93258741 4.83213389,2.82159441 4.83213389,2.52441958 L4.83213389,1.37331469 C4.83213389,1.07636364 4.96200837,0.964475524 5.2581311,0.964475524 L7.70164575,0.964475524 C7.99799163,0.964475524 8.12764296,1.07636364 8.12764296,1.37331469 L8.12764296,2.52441958 C8.12764296,2.82159441 8.23921897,2.93258741 8.5353417,2.93258741 L8.8497629,2.93258741 C9.14588563,2.93258741 9.25746165,2.82159441 9.25746165,2.52441958 L9.25746165,1.00229371" id="Fill-5" fill="#1A1919" mask="url(#mask-2)"></path>
            </g>
            <path d="M25.0115481,20.1024895 C25.0115481,20.740028 25.2494282,21.0188531 25.8849651,21.0188531 L27.5927476,21.0188531 C31.8040725,21.0188531 34.3464435,18.5083077 34.3464435,14.5253147 C34.3464435,10.5420979 31.8040725,8.03155245 27.5927476,8.03155245 L25.8849651,8.03155245 C25.2494282,8.03155245 25.0115481,8.3106014 25.0115481,8.94791608 L25.0115481,20.1024895 Z M28.3092887,0.582713287 C36.2144491,0.582713287 41.6160669,6.39843357 41.6160669,14.4863776 C41.6160669,22.5725315 36.2144491,28.4679161 28.3092887,28.4679161 L19.0520502,28.4679161 C18.4178522,28.4679161 18.1786332,28.1888671 18.1786332,27.5515524 L18.1786332,1.49885315 C18.1786332,0.861538462 18.4178522,0.582713287 19.0520502,0.582713287 L28.3092887,0.582713287 Z" id="Fill-7" fill="#1A1919"></path>
            <path d="M76.3195537,16.7961958 C76.2403347,17.1157483 76.2015063,17.3945734 76.2015063,17.5536783 C76.2015063,17.8712168 76.4795537,17.9916084 76.9162622,17.9916084 L78.3863877,17.9916084 C78.8230962,17.9916084 79.0607531,17.8325035 79.0607531,17.5536783 C79.0607531,17.3945734 79.0219247,17.1157483 78.9427057,16.7961958 L78.2279498,13.6499021 C78.1081172,13.130965 77.9496792,12.812979 77.6310181,12.812979 C77.3141423,12.812979 77.1943096,13.130965 77.0747001,13.6499021 L76.3195537,16.7961958 Z M74.7313808,27.3928951 C74.4935007,28.3481958 74.1750628,28.4681399 73.1028173,28.4681399 L68.2169038,28.4681399 C67.6994142,28.4681399 67.5021478,28.2298182 67.5021478,27.8308252 C67.5021478,27.6719441 67.5409763,27.5517762 67.5813668,27.3526154 L74.1362343,1.4993007 C74.3335007,0.782545455 74.6519386,0.583160839 75.2876987,0.583160839 L80.0149512,0.583160839 C80.6504881,0.583160839 80.9675872,0.782545455 81.1664156,1.4993007 L87.7212831,27.3526154 C87.7601116,27.5517762 87.8005021,27.6719441 87.8005021,27.8308252 C87.8005021,28.2298182 87.6016736,28.4681399 87.085523,28.4681399 L82.1594421,28.4681399 C81.0871967,28.4681399 80.7700976,28.3481958 80.5308787,27.3928951 L79.9357322,24.962014 C79.7369038,24.245035 79.4586332,24.0861538 78.8230962,24.0861538 L76.4391632,24.0861538 C75.8036262,24.0861538 75.4865272,24.245035 75.3265272,24.962014 L74.7313808,27.3928951 Z" id="Fill-8" fill="#1A1919"></path>
            <path d="M101.851939,21.2983497 C104.433138,21.2983497 106.260753,20.2228811 107.690265,18.2299301 C108.126974,17.6331189 108.445635,17.5536783 109.121562,17.8712168 L113.649986,20.0237203 C114.444184,20.4209231 114.324575,21.0193007 114.007476,21.6955524 C111.822594,26.2771469 107.095119,28.8671329 101.811548,28.8671329 C93.7865551,28.8671329 87.9482287,22.8518042 87.9482287,14.5255385 C87.9482287,6.20106294 93.7865551,0.185734266 101.811548,0.185734266 C107.095119,0.185734266 111.822594,2.77415385 114.007476,7.35574825 C114.324575,8.032 114.444184,8.63037762 113.649986,9.02937063 L109.121562,11.1798601 C108.445635,11.4978462 108.126974,11.4181818 107.690265,10.8213706 C106.260753,8.82998601 104.433138,7.75451748 101.851939,7.75451748 C98.0384937,7.75451748 95.2180753,10.7421538 95.2180753,14.5255385 C95.2180753,18.3109371 98.0384937,21.2983497 101.851939,21.2983497" id="Fill-9" fill="#1A1919"></path>
            <path d="M126.715314,14.5255385 C126.715314,9.06830769 126.278605,8.19267133 125.20636,8.19267133 C124.134114,8.19267133 123.695844,9.06830769 123.695844,14.5255385 C123.695844,19.982993 124.134114,20.8604196 125.20636,20.8604196 C126.278605,20.8604196 126.715314,19.982993 126.715314,14.5255385 Z M133.74728,14.5255385 C133.74728,25.4807273 131.044686,28.8671329 125.20636,28.8671329 C119.366248,28.8671329 116.665662,25.4807273 116.665662,14.5255385 C116.665662,3.57034965 119.366248,0.185734266 125.20636,0.185734266 C131.044686,0.185734266 133.74728,3.57034965 133.74728,14.5255385 Z" id="Fill-10" fill="#1A1919"></path>
            <path d="M144.028787,15.7216224 C143.590516,15.2431888 142.99537,15.4038601 142.99537,16.0803357 L142.99537,27.5526713 C142.99537,28.1902098 142.757713,28.469035 142.120391,28.469035 L137.035872,28.469035 C136.401674,28.469035 136.162455,28.1902098 136.162455,27.5526713 L136.162455,1.5001958 C136.162455,0.862881119 136.401674,0.583832168 137.035872,0.583832168 L140.294561,0.583832168 C141.208368,0.583832168 141.366806,0.903384615 142.002343,1.65907692 L152.131213,13.3717483 C152.567922,13.8501818 153.16463,13.6895105 153.16463,13.0132587 L153.16463,1.5001958 C153.16463,0.862881119 153.40251,0.583832168 154.038047,0.583832168 L159.123013,0.583832168 C159.758326,0.583832168 159.997768,0.862881119 159.997768,1.5001958 L159.997768,27.5526713 C159.997768,28.1902098 159.758326,28.469035 159.123013,28.469035 L155.865662,28.469035 C154.951855,28.469035 154.793417,28.1512727 154.15788,27.3937902 L144.028787,15.7216224" id="Fill-11" fill="#1A1919"></path>
        </g>
    </g>
</svg>